<?xml version="1.0" encoding="utf-8"?>
<!-- Generator: Adobe Illustrator 22.1.0, SVG Export Plug-In . SVG Version: 6.00 Build 0)  -->
<svg version="1.1" id="Layer_1" xmlns="http://www.w3.org/2000/svg" xmlns:xlink="http://www.w3.org/1999/xlink" x="0px" y="0px"
	 viewBox="0 0 612.1 193.5" style="enable-background:new 0 0 612.1 193.5;" xml:space="preserve">
<style type="text/css">
	.st0{fill-rule:evenodd;clip-rule:evenodd;fill:#1D3F76;}
	.st1{fill-rule:evenodd;clip-rule:evenodd;fill:#11B6E3;}
	.st2{fill:#11B6E3;}
	.st3{fill:#1D3F76;}
</style>
<path class="st0" d="M427.4,85.2c-4.6,0-9.3,0-13.9,0c0.8-12.5-16.7-17.4-26.6-11.8c-3.1,1.7-5.5,5.3-4.3,10.6
	c1.1,4.8,5.9,6.9,11.8,8.4c5.5,1.5,11.2,2.7,16.1,4.1c10.9,3,19,9.4,19.2,21.1c0.2,18.1-15.7,25.8-35.3,24.7
	c-16.5-0.9-28.3-9.7-28.8-28.1c4.6,0,9.1,0,13.7,0c0.2,3,0.4,4.9,1.2,7c3.4,9,19.8,13.2,29.8,7.4c4.3-2.5,7.9-10,3.6-15.8
	c-2.7-3.6-9.5-4.8-16.1-6.5c-14.1-3.6-30.7-6.1-29.3-25.2c0.5-6.3,4-11.5,7.4-14.4c4.2-3.5,10.6-6.1,19-6.7
	C413.5,58.7,426.5,68.2,427.4,85.2z"/>
<path class="st0" d="M193,61.9c6.4,0,12.8,0,19.2,0c7.2,20.4,14.5,40.8,21.6,61.4c7.5-20.1,14.2-41,21.4-61.4c6.4,0,12.8,0,19.2,0
	c0,26.2,0,52.5,0,78.7c-4.3,0-8.6,0-13,0c-0.6-19.7-0.1-40.4-0.2-60.5c-7.5,19.9-14.6,40.3-21.8,60.5c-3.8,0-7.5,0-11.3,0
	c-7.4-20.1-14.7-40.4-21.8-60.7c-0.6,19.8-0.1,40.6-0.2,60.7c-4.3,0-8.6,0-13,0c-0.6-25.5-0.1-52.1-0.2-78
	C192.7,62.3,192.7,61.9,193,61.9z"/>
<path class="st0" d="M290.9,61.9c16,1.2,32.7-2.3,44.9,1.7c6.4,2.1,11.8,6.3,15.4,11.5c10,14.5,8.7,41.9-1.7,54.5
	c-5.5,6.7-13.6,10.1-24.2,10.8c-10.4,0.7-22.3,0.2-34.6,0c0-25.9,0-51.8,0-77.8C290.6,62.3,290.6,61.9,290.9,61.9z M304.6,73.9
	c0,18.4,0,36.8,0,55.2c11.9-0.3,21.1,1.2,28.8-2.9c13-6.9,14.8-36,4.6-46.6c-6.9-7.1-19-6.7-33.1-6.5
	C304.5,73.2,304.5,73.5,304.6,73.9z"/>
<path class="st1" d="M504.4,129.6c0.5,2.8,5.2,1.5,7.4,1.1c-0.8,3.1-1.3,6.5-2,9.7c-6.8,2.2-17.8,4.3-19-6.1
	c-3.7,3.8-11.3,8.5-22.5,7.7c-3.8-0.3-8.6-1.7-11.5-4.1c-1.9-1.6-3.8-4-4.8-6.7c-0.4-1-1-5.6-0.9-7.8c0.4-4.5,2.1-7.3,3.3-9.1
	c1.1-1.6,3.5-4.1,5-5c5-3.1,11.9-4.5,20-5c4.7-0.3,11.9-0.1,15.3-2.2c0.9-0.6,1.8-1.4,2.1-2.3c2.7-7.8-1.5-12.9-11.9-11.7
	c-2.9,0.3-5.2,1-6.9,1.7c-1,0.4-3.1,2-4,3.4c-1.2,1.6-1.4,2.8-1.8,4.5c-4.3,0-9.3-0.1-12.9,0c0.1-1.3,1.5-6.5,3.5-9.6
	c1.2-1.8,3-3.6,4.3-4.8c3.9-3.5,7.8-4.5,12.6-5.4c13.4-2.3,30.5,0.1,31.4,12.3c0.2,2.3-0.1,5-0.5,7c-1,6-2.7,13.6-4.1,20.2
	C505.9,120,504,127.6,504.4,129.6z M471.5,131.2c1.2,0.3,2.5,0.4,3.8,0.4c5.5,0,10.7-1.9,13.4-5.5c2.9-3.8,6.1-9.7,6.1-16.3
	c-6.6,5.9-29.7,0.3-30,12.8c0,0.8-0.2,1.8,0,2.8C465.2,128,467.5,130.3,471.5,131.2z"/>
<path class="st1" d="M581.6,89.3c-0.8-1.8-2.2-3.5-3.1-4.7c-5.1-6.3-16.2-9.3-25.6-5.9c-0.8,0.3-6,1.5-11.2,8.4
	c0.5-2.6,1.1-5.1,1.6-8c-3.8,0-9.2,0.1-13.4-0.1c-6.3,28.6-12,56.7-17.5,84.3c4.4,0,9.2,0,13.6,0c1.5-7.3,4.2-22.2,6.7-32.3
	c0.8,1.2,1.1,2,1.6,2.7c0.7,1.1,1.4,2.1,2.2,2.9c2.9,3,6.3,5.4,16.9,5.8c7.7,0.3,14-3.9,14.5-4.2c7.7-4.2,12.7-13.2,15-22.2
	C585.3,106,584.7,96,581.6,89.3z M569.8,114c-3,11.6-13.2,20.1-24.3,17c-8.8-2.5-10.7-13.6-7.7-25.2c3-11.6,12.1-19.5,22.7-17.2
	C570.6,90.8,572.8,102.3,569.8,114z"/>
<g>
	<path class="st2" d="M97.9,146.7c0-5.4-0.9-10.7-2.7-15.8c-1-2.7-2.1-5.3-3.5-7.8c-0.3-0.5-1.2-2.7-1.9-2.5
		c-1.4,0.4-2.8,0.7-4.1,1.1c-10.3,3.2-19.3,10-25.3,19c-0.7,1-1.3,2.1-2,3.2c-0.4,0.6,1.3,1.6,1.7,1.9c2,1.6,4.1,3.1,6.3,4.5
		c4.3,2.7,8.8,5,13.7,6.5c4.7,1.4,9.4,2.5,14.3,3c0.6,0.1,1.2,0.1,1.7,0.1c0.2-0.6,0.3-1.2,0.5-1.9c0.3-1.3,0.6-2.5,0.8-3.8
		C97.6,151.8,97.9,149.3,97.9,146.7"/>
	<path class="st3" d="M63.1,130.5c4.1-4.1,7.4-8.9,9.8-14.1c1.1-2.5,2.1-5.2,2.8-7.9c0.1-0.5,0.5-1.3,0.4-1.8
		c-0.1-0.4-0.7-0.6-1-0.8c-1.2-0.6-2.3-1.4-3.5-2c-8.7-4.4-18.8-6-28.4-4.6c-0.8,0.1-6.4,0.8-6.3,1.7c0.4,2.5,0.5,5,1,7.5
		c1,5.1,2.6,10.1,4.7,14.8c2.2,4.8,5.2,9.4,8.6,13.5c0.3,0.4,0.7,0.8,1,1.3c0.3,0.4,0.5,0.3,0.9,0c1.2-0.7,2.3-1.4,3.5-2.2
		C58.8,134.4,61,132.6,63.1,130.5"/>
	<path class="st2" d="M150.2,98.8c-5.3,0-10.7,0.9-15.8,2.7c-2.7,0.9-5.3,2.1-7.8,3.5c-0.6,0.3-2.7,1.2-2.5,1.9
		c0.4,1.4,0.7,2.8,1.1,4.1c3.2,10.3,10,19.3,19,25.3c1,0.7,2.1,1.2,3.1,1.9c0.7,0.5,1.9-1.6,2.3-2.1c1.6-2,3.1-4.1,4.4-6.3
		c2.6-4.2,4.8-8.6,6.2-13.3c1.4-4.6,2.5-9.4,3-14.2c0.1-0.6,0.1-1.1,0.1-1.7c-0.6-0.2-1.2-0.3-1.9-0.5c-1.3-0.3-2.5-0.6-3.8-0.8
		C155.2,99,152.7,98.8,150.2,98.8"/>
	<path class="st3" d="M110,120.7c-5.4,8.3-8.1,18.3-7.7,28.2c0.1,2.8,0.5,5.6,1.1,8.3c0.2,0.7,0.3,2.9,1.3,2.9
		c1.3-0.1,2.6-0.3,3.9-0.5c2.7-0.4,5.3-0.8,8-1.5c2.6-0.7,5.1-1.7,7.6-2.7c5-2,9.6-4.6,13.9-7.9c1-0.8,2-1.6,3-2.4
		c0.1-0.1,0.9-0.6,0.9-0.8c0-0.4-0.6-1.1-0.8-1.4c-1.5-2.4-3.2-4.8-5-6.9C129.4,128.2,120.1,122.8,110,120.7"/>
	<path class="st3" d="M66.2,59.6c4.1,4.1,8.9,7.4,14.1,9.8c2.5,1.1,5.2,2.1,7.9,2.8c0.5,0.1,1.3,0.5,1.8,0.4c0.4-0.1,0.6-0.7,0.8-1
		c0.6-1.2,1.3-2.3,2-3.5c4.4-8.7,6-18.8,4.6-28.4c-0.1-0.7-0.9-6.4-1.6-6.3c-2.5,0.3-5.1,0.5-7.6,1c-5.1,1-10.1,2.6-14.9,4.8
		c-4.9,2.2-9.4,5.1-13.5,8.5c-0.4,0.4-0.8,0.7-1.3,1.1c-0.4,0.3-0.3,0.5,0,0.9c0.7,1.2,1.4,2.3,2.2,3.5
		C62.3,55.4,64.1,57.6,66.2,59.6"/>
	<path class="st2" d="M76,86.7C73.8,76.3,68.1,66.7,60,59.9c-1.1-0.9-2.2-1.8-3.4-2.6c-1.2-0.9-2.6-1.6-3.8-2.4
		c-0.7-0.5-1.8,1.4-2.2,1.9c-1,1.2-1.9,2.4-2.8,3.7c-3.2,4.7-5.9,9.7-7.7,15.1c-1.6,4.9-2.8,9.9-3.3,15c-0.1,0.6-0.1,1.2-0.1,1.7
		c0,0.3,0.6,0.4,0.8,0.5c1.1,0.3,2.3,0.5,3.5,0.8c2.6,0.5,5.3,0.8,7.9,0.8C58.5,94.6,68,91.9,76,86.7"/>
	<path class="st3" d="M161.8,81.7c-1.3-5.4-3.4-10.5-5.9-15.4c-1.3-2.5-2.9-4.9-4.6-7.2c-0.8-1.1-1.7-2.2-2.5-3.3
		c-0.2-0.2-0.4-0.5-0.6-0.7c-0.3-0.3-0.2-0.5-0.6-0.2c-0.7,0.4-1.4,0.8-2,1.2c-9.2,5.8-16.3,14.7-19.8,25c-0.4,1.2-0.8,2.3-1.1,3.5
		c-0.2,0.9-0.8,2,0.2,2.6c2.2,1.2,4.3,2.4,6.7,3.4c4.5,1.9,9.2,3.1,14.1,3.6c4.7,0.5,9.6,0.2,14.2-0.7c1.2-0.2,2.4-0.5,3.5-0.8
		c0.5-0.1,0-2.7-0.1-3.1C162.9,86.9,162.4,84.3,161.8,81.7"/>
	<path class="st2" d="M110,72.6c10.4-2.2,20-7.9,26.8-16.1c0.9-1.1,1.8-2.2,2.6-3.4c0.8-1.2,1.5-2.5,2.4-3.7c0.4-0.5,0.1-0.6-0.4-1
		c-0.5-0.4-1-0.9-1.6-1.3c-1.2-1-2.5-1.9-3.7-2.8c-4.7-3.2-9.7-5.9-15-7.6c-4.8-1.6-9.7-2.7-14.8-3.2c-0.6-0.1-1.2-0.1-1.7-0.1
		c-0.5,0-0.5,0.1-0.6,0.6c-0.4,1.3-0.7,2.7-0.9,4.1c-0.5,2.6-0.7,5.3-0.8,7.9C102.1,55.3,104.9,64.7,110,72.6"/>
</g>
</svg>
